<svg width="47" height="30" viewBox="0 0 47 30" fill="none" xmlns="http://www.w3.org/2000/svg">
<path d="M38.9659 13.7535V8.12326H32.0692V0H26.5008V8.12326H16.033V13.7535H26.5008V24.373H16.033V30H26.5008H32.0692V13.7535H38.9659Z" fill="#0F97AA"/>
<path d="M16.5873 21.8767V16.2465H5.5652V5.62701H16.5873V0H5.5652H0V5.62701V16.2465V21.8767V30H5.5652V21.8767H16.5873Z" fill="#063C43"/>
<path d="M42.983 21.877C41.9176 21.877 40.8958 22.3049 40.1425 23.0666C39.3892 23.8283 38.9659 24.8614 38.9659 25.9386C38.9659 27.0158 39.3892 28.0489 40.1425 28.8106C40.8958 29.5723 41.9176 30.0002 42.983 30.0002V30.0002C44.0483 30.0002 45.0701 29.5723 45.8234 28.8106C46.5768 28.0489 47 27.0158 47 25.9386C47 24.8614 46.5768 23.8283 45.8234 23.0666C45.0701 22.3049 44.0483 21.877 42.983 21.877V21.877Z" fill="#063C43"/>
</svg>
